<?xml version="1.0" encoding="UTF-8"?>
<svg id="Layer_1" data-name="Layer 1" xmlns="http://www.w3.org/2000/svg" viewBox="0 0 66.32 42.44">
  <defs>
    <style>
      .cls-1 {
        fill: #1c75bc;
        opacity: .71;
      }

      .cls-1, .cls-2, .cls-3 {
        stroke-width: 0px;
      }

      .cls-2 {
        fill: #2b3990;
      }

      .cls-2, .cls-3 {
        opacity: .68;
      }

      .cls-3 {
        fill: #4ba9df;
      }
    </style>
  </defs>
  <path class="cls-1" d="m1.77,22.43c-2.78-4.98-.97-11.41,2.14-15.28C8.81,1.04,16.81,1.32,19.22,1.41c6.71.24,14.1,3.7,17.74,9.53,2.04,3.27,1.54,5.1,3.79,6.48,3.87,2.36,7.42-1.8,13.55-.27.53.13,6.46,1.63,8.79,7.2,2.59,6.19-1.03,12.02-1.24,12.35-3.98,6.19-12.14,5.57-13.9,5.46-1.37-.08-6.54-.32-10.62-4.04-4.87-4.43-2.76-8.85-6.46-11.08-4.69-2.83-9.34,3.46-18.47,1.85-1.54-.27-7.78-1.38-10.62-6.46Z"/>
  <path class="cls-2" d="m64.88,28.58c-.44.95-2.83,6.11-8.64,7.8-5.43,1.57-9.93-1.03-11.01-1.66-4.04-2.34-7.08-6.68-7.88-11.13-.59-3.27.34-4.86-1.11-6.46-1.92-2.11-4.59-.45-7.53-2.65-1.95-1.46-3.35-4.11-3.16-6.92.3-4.35,4.25-6.5,4.48-6.63,3.52-1.84,7.78-.74,10.08,1.36,2.15,1.98,1.46,3.84,3.61,5.25,2.14,1.41,4.11.41,7.36.44.42,0,8.09.18,12.33,5.27,3.47,4.18,3.68,10.53,1.47,15.32Z"/>
  <path class="cls-3" d="m1.24,12.83c.47-.95,2.02-3.99,5.23-5.14,5.23-1.87,10.01,3.06,10.3,3.36,1.6,1.7,2.53,3.83,2.88,4.64,1.35,3.09.88,4.27,2.18,5.59,1.02,1.04,2.05,1.07,5.96,1.7,4.62.75,6.94,1.12,7.68,1.55,3.43,1.97,6.1,8.27,3.4,13.16-2.69,4.87-9.94,5.86-13.87,3.61-4.02-2.3-2.53-6.84-6.7-9.11-4.2-2.29-7.4,1.39-11.99-1.13-3.42-1.88-4.7-5.6-5.27-7.23-.51-1.49-2.16-6.25.2-10.99Z"/>
</svg>
