<?xml version="1.0" encoding="UTF-8"?>
<svg id="Layer_1" data-name="Layer 1" xmlns="http://www.w3.org/2000/svg" viewBox="0 0 227.47 58.31">
  <defs>
    <style>
      .cls-1 {
        fill: #1c75bc;
        opacity: .71;
      }

      .cls-1, .cls-2, .cls-3, .cls-4 {
        stroke-width: 0px;
      }

      .cls-2 {
        fill: #4553a4;
      }

      .cls-3 {
        fill: #2b3990;
      }

      .cls-3, .cls-4 {
        opacity: .68;
      }

      .cls-4 {
        fill: #4ba9df;
      }
    </style>
  </defs>
  <g>
    <path class="cls-2" d="m89.1,38.08l-3.79,12.48h-8.3l14.11-44.03h10.26l14.31,44.03h-8.62l-3.98-12.48h-13.98Zm12.61-6.08l-3.46-10.84c-.85-2.68-1.57-5.68-2.22-8.23h-.13c-.65,2.55-1.31,5.62-2.09,8.23l-3.4,10.84h11.3Z"/>
    <path class="cls-2" d="m121.83,6.53h8.04v37.3h18.09v6.73h-26.13V6.53Z"/>
    <path class="cls-2" d="m154.04,50.56V6.53h9.15l11.37,18.88c2.94,4.9,5.49,9.99,7.51,14.76h.13c-.52-5.88-.72-11.56-.72-18.29V6.53h7.45v44.03h-8.3l-11.5-19.34c-2.81-4.83-5.75-10.26-7.9-15.22l-.2.07c.33,5.68.39,11.5.39,18.75v15.74h-7.38Z"/>
    <path class="cls-2" d="m198,41.81c2.61,1.5,6.53,2.81,10.65,2.81,5.16,0,8.03-2.42,8.03-6.01,0-3.33-2.22-5.29-7.84-7.32-7.25-2.61-11.89-6.47-11.89-12.8,0-7.19,6.01-12.67,15.55-12.67,4.77,0,8.3,1.04,10.58,2.22l-1.96,6.47c-1.57-.85-4.64-2.09-8.75-2.09-5.09,0-7.32,2.74-7.32,5.29,0,3.4,2.55,4.96,8.43,7.25,7.64,2.87,11.37,6.73,11.37,13.06,0,7.05-5.36,13.2-16.72,13.2-4.64,0-9.47-1.31-11.89-2.74l1.76-6.66Z"/>
  </g>
  <path class="cls-1" d="m3.37,29.78c-2.78-4.98-.97-11.41,2.14-15.28,4.9-6.11,12.9-5.82,15.31-5.73,6.71.24,14.1,3.7,17.74,9.53,2.04,3.27,1.54,5.1,3.79,6.48,3.87,2.36,7.42-1.8,13.55-.27.53.13,6.46,1.63,8.79,7.2,2.59,6.19-1.03,12.02-1.24,12.35-3.98,6.19-12.14,5.57-13.9,5.46-1.37-.08-6.54-.32-10.62-4.04-4.87-4.43-2.76-8.85-6.46-11.08-4.69-2.83-9.34,3.46-18.47,1.85-1.54-.27-7.78-1.38-10.62-6.46Z"/>
  <path class="cls-3" d="m66.47,35.94c-.44.95-2.83,6.11-8.64,7.8-5.43,1.57-9.93-1.03-11.01-1.66-4.04-2.34-7.08-6.68-7.88-11.13-.59-3.27.34-4.86-1.11-6.46-1.92-2.11-4.59-.45-7.53-2.65-1.95-1.46-3.35-4.11-3.16-6.92.3-4.35,4.25-6.5,4.48-6.63,3.52-1.84,7.78-.74,10.08,1.36,2.15,1.98,1.46,3.84,3.61,5.25,2.14,1.41,4.11.41,7.36.44.42,0,8.09.18,12.33,5.27,3.47,4.18,3.68,10.53,1.47,15.32Z"/>
  <path class="cls-4" d="m2.83,20.18c.47-.95,2.02-3.99,5.23-5.14,5.23-1.87,10.01,3.06,10.3,3.36,1.6,1.7,2.53,3.83,2.88,4.64,1.35,3.09.88,4.27,2.18,5.59,1.02,1.04,2.05,1.07,5.96,1.7,4.62.75,6.94,1.12,7.68,1.55,3.43,1.97,6.1,8.27,3.4,13.16-2.69,4.87-9.94,5.86-13.87,3.61-4.02-2.3-2.53-6.84-6.7-9.11-4.2-2.29-7.4,1.39-11.99-1.13-3.42-1.88-4.7-5.6-5.27-7.23-.51-1.49-2.16-6.25.2-10.99Z"/>
</svg>
